<svg width="168" height="57" viewBox="0 0 168 57" fill="none" xmlns="http://www.w3.org/2000/svg">
<path d="M15.54 33.416C21.672 33.416 25.704 29.258 25.704 23.336C25.704 17.33 21.714 13.298 15.54 13.298H3.402V44H8.778V33.416H15.54ZM14.49 18.086C18.06 18.086 20.076 19.934 20.076 23.294C20.076 26.654 18.102 28.628 14.406 28.628H8.778V18.086H14.49ZM41.2302 23.168C40.3902 22.958 39.6762 22.874 38.9622 22.874C36.1902 22.874 34.2162 24.26 33.3342 26.318L33.0402 23.294H28.2102V44H33.3342V33.92C33.3342 29.888 35.6442 27.914 39.3402 27.914H41.2302V23.168ZM52.0232 44.546C57.4412 44.546 61.2212 41.816 62.1032 37.28H57.3572C56.7692 39.254 54.9212 40.346 52.1072 40.346C48.7052 40.346 46.7732 38.498 46.3952 34.844L62.0192 34.802V33.248C62.0192 26.78 58.0712 22.622 51.8552 22.622C45.7652 22.622 41.5232 27.116 41.5232 33.626C41.5232 40.052 45.8492 44.546 52.0232 44.546ZM51.8972 26.822C54.9632 26.822 56.9372 28.712 56.9372 31.568H46.5212C47.0252 28.46 48.8732 26.822 51.8972 26.822ZM73.3861 44.546C76.5361 44.546 79.2241 43.16 80.4841 40.766L80.8201 44H85.5241V12.752H80.4421V25.898C79.1401 23.84 76.5781 22.622 73.6801 22.622C67.4221 22.622 63.6421 27.242 63.6421 33.71C63.6421 40.136 67.3801 44.546 73.3861 44.546ZM74.5201 39.842C70.9501 39.842 68.7661 37.238 68.7661 33.542C68.7661 29.846 70.9501 27.2 74.5201 27.2C78.0901 27.2 80.4001 29.804 80.4001 33.542C80.4001 37.28 78.0901 39.842 74.5201 39.842ZM86.1181 55.382C84.8301 55.382 83.8501 55.102 83.1781 54.542C82.4781 54.01 82.1281 53.282 82.1281 52.358C82.1281 51.658 82.3521 51.042 82.8001 50.51C83.2201 49.978 83.8361 49.712 84.6481 49.712C85.2361 49.712 85.7541 49.908 86.2021 50.3C86.6221 50.72 86.8321 51.252 86.8321 51.896C86.8321 51.952 86.8321 52.008 86.8321 52.064C86.8321 52.148 86.8181 52.232 86.7901 52.316C86.9581 52.372 87.1401 52.4 87.3361 52.4C87.8121 52.4 88.2041 52.148 88.5121 51.644C88.8201 51.14 89.0581 50.482 89.2261 49.67C89.4221 48.858 89.5621 47.99 89.6461 47.066C89.7581 46.142 89.8561 45.274 89.9401 44.462C90.0521 43.258 90.1641 41.858 90.2761 40.262C90.3881 38.638 90.5001 36.958 90.6121 35.222C90.7521 33.458 90.8781 31.778 90.9901 30.182C91.1301 28.586 91.2421 27.2 91.3261 26.024L87.9661 26.066L88.3441 23H91.7041C92.1801 19.388 93.2301 16.672 94.8541 14.852C96.5061 13.004 98.9281 12.08 102.12 12.08C103.324 12.08 104.416 12.234 105.396 12.542C106.376 12.85 107.258 13.004 108.042 13.004C108.378 13.004 108.686 12.962 108.966 12.878C109.274 12.766 109.554 12.57 109.806 12.29H112.116C111.556 17.078 111.094 21.082 110.73 24.302C110.366 27.494 110.072 30.084 109.848 32.072C109.624 34.06 109.47 35.614 109.386 36.734C109.302 37.826 109.26 38.694 109.26 39.338C109.26 39.842 109.33 40.178 109.47 40.346C109.61 40.486 109.75 40.556 109.89 40.556C110.198 40.556 110.52 40.318 110.856 39.842C111.192 39.366 111.542 38.498 111.906 37.238L114.174 37.91C114.006 38.61 113.768 39.352 113.46 40.136C113.152 40.892 112.732 41.606 112.2 42.278C111.696 42.922 111.08 43.454 110.352 43.874C109.624 44.266 108.756 44.462 107.748 44.462C106.712 44.462 105.816 44.154 105.06 43.538C104.304 42.922 103.926 41.886 103.926 40.43C103.926 39.17 103.982 37.756 104.094 36.188C104.206 34.62 104.346 32.968 104.514 31.232C104.682 29.496 104.864 27.732 105.06 25.94C105.284 24.12 105.494 22.314 105.69 20.522C105.746 19.99 105.83 19.29 105.942 18.422C106.082 17.554 106.18 16.812 106.236 16.196C105.62 15.72 104.948 15.384 104.22 15.188C103.52 14.964 102.848 14.852 102.204 14.852C101.028 14.852 100.09 15.132 99.3901 15.692C98.6901 16.224 98.1581 17.092 97.7941 18.296C97.4301 19.472 97.1361 21.04 96.9121 23H101.28L101.028 25.898L96.7441 25.982C96.6601 27.186 96.5621 28.6 96.4501 30.224C96.3381 31.82 96.2121 33.5 96.0721 35.264C95.9321 37 95.7921 38.68 95.6521 40.304C95.5121 41.9 95.3721 43.286 95.2321 44.462C94.9801 46.618 94.5041 48.522 93.8041 50.174C93.1041 51.826 92.1241 53.1 90.8641 53.996C89.6041 54.92 88.0221 55.382 86.1181 55.382ZM125.061 22.538C126.629 22.538 128.043 22.902 129.303 23.63C130.591 24.358 131.613 25.422 132.369 26.822C133.125 28.222 133.503 29.916 133.503 31.904C133.503 34.116 133.069 36.188 132.201 38.12C131.361 40.024 130.157 41.564 128.589 42.74C127.021 43.888 125.145 44.462 122.961 44.462C121.085 44.462 119.517 44.042 118.257 43.202C116.997 42.334 116.059 41.172 115.443 39.716C114.827 38.26 114.519 36.664 114.519 34.928C114.519 32.688 114.939 30.63 115.779 28.754C116.647 26.878 117.865 25.38 119.433 24.26C121.029 23.112 122.905 22.538 125.061 22.538ZM124.431 25.31C123.591 25.282 122.849 25.66 122.205 26.444C121.589 27.2 121.099 28.222 120.735 29.51C120.399 30.798 120.231 32.212 120.231 33.752C120.231 34.592 120.273 35.474 120.357 36.398C120.469 37.322 120.651 38.19 120.903 39.002C121.183 39.786 121.533 40.43 121.953 40.934C122.401 41.438 122.961 41.69 123.633 41.69C124.361 41.69 124.977 41.41 125.481 40.85C125.985 40.29 126.391 39.576 126.699 38.708C127.035 37.812 127.273 36.874 127.413 35.894C127.581 34.914 127.679 33.99 127.707 33.122C127.735 32.366 127.707 31.54 127.623 30.644C127.539 29.748 127.385 28.894 127.161 28.082C126.937 27.27 126.601 26.612 126.153 26.108C125.705 25.576 125.131 25.31 124.431 25.31ZM160.326 22.538C161.222 22.538 162.006 22.748 162.678 23.168C163.378 23.56 163.952 24.106 164.4 24.806C164.876 25.506 165.226 26.318 165.45 27.242C165.702 28.166 165.828 29.146 165.828 30.182C165.828 31.666 165.534 33.234 164.946 34.886C164.358 36.538 163.532 38.092 162.468 39.548C161.404 41.004 160.158 42.194 158.73 43.118C157.302 44.014 155.734 44.462 154.026 44.462C152.822 44.462 151.884 44.182 151.212 43.622C150.54 43.062 150.092 42.32 149.868 41.396C149.672 40.444 149.644 39.422 149.784 38.33C149.392 39.842 148.818 41.046 148.062 41.942C147.334 42.838 146.508 43.482 145.584 43.874C144.66 44.266 143.722 44.462 142.77 44.462C140.978 44.462 139.676 43.888 138.864 42.74C138.052 41.564 137.646 39.954 137.646 37.91C137.646 37.182 137.688 36.342 137.772 35.39C137.884 34.41 137.996 33.416 138.108 32.408C138.248 31.4 138.36 30.462 138.444 29.594C138.556 28.726 138.612 28.04 138.612 27.536C138.612 27.06 138.528 26.766 138.36 26.654C138.22 26.514 138.08 26.444 137.94 26.444C137.604 26.444 137.268 26.682 136.932 27.158C136.596 27.634 136.246 28.502 135.882 29.762L133.614 29.09C133.726 28.502 133.936 27.83 134.244 27.074C134.58 26.318 135.014 25.604 135.546 24.932C136.078 24.232 136.708 23.658 137.436 23.21C138.164 22.762 139.004 22.538 139.956 22.538C141.048 22.538 141.888 22.762 142.476 23.21C143.064 23.658 143.47 24.246 143.694 24.974C143.918 25.702 144.03 26.514 144.03 27.41C144.03 28.306 143.974 29.286 143.862 30.35C143.778 31.414 143.666 32.492 143.526 33.584C143.386 34.648 143.26 35.642 143.148 36.566C143.064 37.49 143.022 38.274 143.022 38.918C143.022 39.198 143.036 39.534 143.064 39.926C143.12 40.29 143.232 40.612 143.4 40.892C143.568 41.172 143.834 41.312 144.198 41.312C145.01 41.312 145.71 40.948 146.298 40.22C146.886 39.492 147.376 38.554 147.768 37.406C148.188 36.23 148.51 34.956 148.734 33.584C148.986 32.212 149.154 30.868 149.238 29.552C149.35 28.208 149.406 27.032 149.406 26.024C149.406 25.632 149.392 25.114 149.364 24.47C149.336 23.826 149.308 23.336 149.28 23H154.698C154.754 23.588 154.782 24.008 154.782 24.26C154.782 24.484 154.782 24.736 154.782 25.016C154.782 25.912 154.726 27.018 154.614 28.334C154.53 29.65 154.418 31.008 154.278 32.408C154.166 33.78 154.054 35.054 153.942 36.23C153.858 37.378 153.816 38.274 153.816 38.918C153.816 39.366 153.928 39.884 154.152 40.472C154.404 41.032 154.852 41.312 155.496 41.312C156.224 41.312 156.994 41.032 157.806 40.472C158.646 39.884 159.43 39.1 160.158 38.12C160.914 37.112 161.53 35.964 162.006 34.676C162.482 33.36 162.72 31.988 162.72 30.56C162.72 30.252 162.692 29.944 162.636 29.636C162.58 29.3 162.496 28.992 162.384 28.712C162.3 28.404 162.188 28.138 162.048 27.914C161.936 27.662 161.81 27.466 161.67 27.326C161.418 27.522 161.124 27.704 160.788 27.872C160.48 28.012 160.13 28.082 159.738 28.082C159.178 28.082 158.604 27.886 158.016 27.494C157.428 27.074 157.134 26.402 157.134 25.478C157.134 25.086 157.232 24.666 157.428 24.218C157.624 23.742 157.96 23.35 158.436 23.042C158.912 22.706 159.542 22.538 160.326 22.538Z" fill="#141414"/>
</svg>
